<svg width="128" height="128" viewBox="0 0 128 128" xmlns="http://www.w3.org/2000/svg">
  <rect width="128" height="128" rx="20" fill="#0a0e14"/>
  <rect width="128" height="128" rx="20" fill="url(#gradient)" opacity="0.1"/>
  
  <defs>
    <linearGradient id="gradient" x1="0%" y1="0%" x2="100%" y2="100%">
      <stop offset="0%" style="stop-color:#22d3ee;stop-opacity:1" />
      <stop offset="100%" style="stop-color:#3b82f6;stop-opacity:1" />
    </linearGradient>
  </defs>
  
  <!-- Bug icon -->
  <g transform="translate(32, 32)">
    <!-- Body -->
    <ellipse cx="32" cy="40" rx="20" ry="28" fill="#22d3ee"/>
    <ellipse cx="32" cy="20" rx="16" ry="16" fill="#22d3ee"/>
    
    <!-- Eyes -->
    <circle cx="26" cy="18" r="4" fill="#0a0e14"/>
    <circle cx="38" cy="18" r="4" fill="#0a0e14"/>
    
    <!-- Antennae -->
    <path d="M 24 8 Q 18 2 12 0" stroke="#22d3ee" stroke-width="3" fill="none" stroke-linecap="round"/>
    <path d="M 40 8 Q 46 2 52 0" stroke="#22d3ee" stroke-width="3" fill="none" stroke-linecap="round"/>
    <circle cx="12" cy="0" r="3" fill="#3b82f6"/>
    <circle cx="52" cy="0" r="3" fill="#3b82f6"/>
    
    <!-- Legs -->
    <path d="M 16 35 L 2 30" stroke="#22d3ee" stroke-width="3" stroke-linecap="round"/>
    <path d="M 16 45 L 0 45" stroke="#22d3ee" stroke-width="3" stroke-linecap="round"/>
    <path d="M 16 55 L 2 60" stroke="#22d3ee" stroke-width="3" stroke-linecap="round"/>
    
    <path d="M 48 35 L 62 30" stroke="#22d3ee" stroke-width="3" stroke-linecap="round"/>
    <path d="M 48 45 L 64 45" stroke="#22d3ee" stroke-width="3" stroke-linecap="round"/>
    <path d="M 48 55 L 62 60" stroke="#22d3ee" stroke-width="3" stroke-linecap="round"/>
  </g>
</svg>

